<svg width="15" height="15" viewBox="0 0 15 15" fill="none" xmlns="http://www.w3.org/2000/svg">
<mask id="mask0_0_166" style="mask-type:luminance" maskUnits="userSpaceOnUse" x="0" y="0" width="15" height="15">
<path fill-rule="evenodd" clip-rule="evenodd" d="M0.5 0.767395H14.8964V14.4806H0.5V0.767395Z" fill="white"/>
</mask>
<g mask="url(#mask0_0_166)">
<path fill-rule="evenodd" clip-rule="evenodd" d="M1.7839 7.18146C2.76979 10.2488 6.66484 12.729 7.69996 13.3429C8.73859 12.7227 12.6618 10.2151 13.616 7.18428C14.2426 5.22515 13.661 2.74354 11.3503 1.99884C10.2308 1.63951 8.92494 1.8582 8.02343 2.55578C7.83498 2.70064 7.57338 2.70346 7.38352 2.56C6.42857 1.84203 5.18108 1.63177 4.044 1.99884C1.73679 2.74284 1.15734 5.22444 1.7839 7.18146ZM7.69938 14.48C7.61218 14.48 7.52569 14.4589 7.44693 14.416C7.22683 14.2957 2.0421 11.4379 0.778439 7.50418C0.777735 7.50418 0.777735 7.50348 0.777735 7.50348C-0.0154795 5.02679 0.867746 1.91441 3.71924 0.995318C5.05814 0.562144 6.51729 0.752712 7.69727 1.49741C8.84068 0.774511 10.3596 0.574801 11.6718 0.995318C14.5261 1.91581 15.4121 5.02749 14.6196 7.50348C13.3967 11.3922 8.17404 14.2929 7.95253 14.4146C7.87377 14.4582 7.78658 14.48 7.69938 14.48Z" fill="#B8B8B8"/>
</g>
<path fill-rule="evenodd" clip-rule="evenodd" d="M11.8584 6.12954C11.5862 6.12954 11.3556 5.92069 11.3331 5.64503C11.2867 5.067 10.8999 4.57898 10.3493 4.40106C10.0715 4.31105 9.91965 4.0136 10.009 3.73724C10.0997 3.46018 10.3943 3.30969 10.6728 3.39689C11.6313 3.707 12.3028 4.55577 12.3851 5.55924C12.4083 5.84967 12.1924 6.10423 11.902 6.12743C11.8872 6.12884 11.8732 6.12954 11.8584 6.12954Z" fill="#B8B8B8"/>
</svg>
