<svg width="18" height="18" viewBox="0 0 18 18" fill="none" xmlns="http://www.w3.org/2000/svg">
<mask id="mask0_0_92" style="mask-type:luminance" maskUnits="userSpaceOnUse" x="0" y="0" width="17" height="17">
<path fill-rule="evenodd" clip-rule="evenodd" d="M0.666672 0.666656H16.8973V16.8975H0.666672V0.666656Z" fill="white"/>
</mask>
<g mask="url(#mask0_0_92)">
<path fill-rule="evenodd" clip-rule="evenodd" d="M8.78234 1.91666C4.9965 1.91666 1.9165 4.99582 1.9165 8.78166C1.9165 12.5675 4.9965 15.6475 8.78234 15.6475C12.5673 15.6475 15.6473 12.5675 15.6473 8.78166C15.6473 4.99582 12.5673 1.91666 8.78234 1.91666ZM8.78234 16.8975C4.30734 16.8975 0.666504 13.2567 0.666504 8.78166C0.666504 4.30666 4.30734 0.666656 8.78234 0.666656C13.2573 0.666656 16.8973 4.30666 16.8973 8.78166C16.8973 13.2567 13.2573 16.8975 8.78234 16.8975Z" fill="#B8B8B8"/>
</g>
<mask id="mask1_0_92" style="mask-type:luminance" maskUnits="userSpaceOnUse" x="13" y="13" width="5" height="5">
<path fill-rule="evenodd" clip-rule="evenodd" d="M13.3666 13.7558H17.5533V17.9347H13.3666V13.7558Z" fill="white"/>
</mask>
<g mask="url(#mask1_0_92)">
<path fill-rule="evenodd" clip-rule="evenodd" d="M16.9285 17.9347C16.7693 17.9347 16.6093 17.8739 16.4868 17.7522L13.5502 14.8239C13.306 14.5797 13.3052 14.1839 13.5493 13.9397C13.7927 13.6939 14.1885 13.6956 14.4335 13.9381L17.3702 16.8672C17.6143 17.1114 17.6152 17.5064 17.371 17.7506C17.2493 17.8739 17.0885 17.9347 16.9285 17.9347Z" fill="#B8B8B8"/>
</g>
</svg>
