<svg width="17" height="14" viewBox="0 0 17 14" fill="none" xmlns="http://www.w3.org/2000/svg">
<path d="M9.88673 1.1886V3.00322" stroke="#B8B8B8" stroke-width="1.34971" stroke-linecap="round" stroke-linejoin="round"/>
<path d="M9.88673 11.3186V12.8363" stroke="#B8B8B8" stroke-width="1.34971" stroke-linecap="round" stroke-linejoin="round"/>
<path d="M9.88673 8.74121V5.12622" stroke="#B8B8B8" stroke-width="1.34971" stroke-linecap="round" stroke-linejoin="round"/>
<path fill-rule="evenodd" clip-rule="evenodd" d="M13.5272 12.9986C14.8935 12.9986 16.0001 11.9057 16.0001 10.5564V8.61247C15.0961 8.61247 14.368 7.89342 14.368 7.0006C14.368 6.10778 15.0961 5.38796 16.0001 5.38796L15.9993 3.44322C15.9993 2.09395 14.8919 1.0011 13.5265 1.0011H3.47696C2.11148 1.0011 1.00408 2.09395 1.00408 3.44322L1.0033 5.4513C1.90736 5.4513 2.63546 6.10778 2.63546 7.0006C2.63546 7.89342 1.90736 8.61247 1.0033 8.61247V10.5564C1.0033 11.9057 2.10992 12.9986 3.47618 12.9986H13.5272Z" stroke="#B8B8B8" stroke-width="1.34971" stroke-linecap="round" stroke-linejoin="round"/>
</svg>
